<?xml version="1.0" encoding="UTF-8" standalone="no"?>
<!-- Generator: Adobe Illustrator 16.0.0, SVG Export Plug-In . SVG Version: 6.00 Build 0)  -->

<svg
   xmlns:dc="http://purl.org/dc/elements/1.1/"
   xmlns:cc="http://creativecommons.org/ns#"
   xmlns:rdf="http://www.w3.org/1999/02/22-rdf-syntax-ns#"
   xmlns:svg="http://www.w3.org/2000/svg"
   xmlns="http://www.w3.org/2000/svg"
   xmlns:sodipodi="http://sodipodi.sourceforge.net/DTD/sodipodi-0.dtd"
   xmlns:inkscape="http://www.inkscape.org/namespaces/inkscape"
   version="1.1"
   id="Layer_1"
   x="0px"
   y="0px"
   width="266.893px"
   height="266.895px"
   viewBox="0 0 266.893 266.895"
   enable-background="new 0 0 266.893 266.895"
   xml:space="preserve"
   sodipodi:docname="facebook.svg"
   inkscape:version="0.92.3 (2405546, 2018-03-11)"><metadata
   id="metadata3842"><rdf:RDF><cc:Work
       rdf:about=""><dc:format>image/svg+xml</dc:format><dc:type
         rdf:resource="http://purl.org/dc/dcmitype/StillImage" /></cc:Work></rdf:RDF></metadata><defs
   id="defs3840" /><sodipodi:namedview
   pagecolor="#ffffff"
   bordercolor="#666666"
   borderopacity="1"
   objecttolerance="10"
   gridtolerance="10"
   guidetolerance="10"
   inkscape:pageopacity="0"
   inkscape:pageshadow="2"
   inkscape:window-width="1920"
   inkscape:window-height="1019"
   id="namedview3838"
   showgrid="false"
   inkscape:zoom="3.061129"
   inkscape:cx="133.4465"
   inkscape:cy="133.44749"
   inkscape:window-x="1920"
   inkscape:window-y="0"
   inkscape:window-maximized="1"
   inkscape:current-layer="Layer_1" />
<path
   id="Blue_1_"
   fill="#242424"
   d="M248.082,262.307c7.854,0,14.223-6.369,14.223-14.225V18.812  c0-7.857-6.368-14.224-14.223-14.224H18.812c-7.857,0-14.224,6.367-14.224,14.224v229.27c0,7.855,6.366,14.225,14.224,14.225  H248.082z" />
<path
   id="f"
   fill="#242424"
   d="M182.409,262.307v-99.803h33.499l5.016-38.895h-38.515V98.777c0-11.261,3.127-18.935,19.275-18.935  l20.596-0.009V45.045c-3.562-0.474-15.788-1.533-30.012-1.533c-29.695,0-50.025,18.126-50.025,51.413v28.684h-33.585v38.895h33.585  v99.803H182.409z" />
<path
   style="fill:#FFFFFF;stroke-width:0.32667685"
   d="m 16.591986,261.95882 c -3.822374,-0.55848 -7.9574105,-3.40389 -9.9920528,-6.87574 -2.012307,-3.43375 -1.8766703,5.87645 -1.7846794,-122.50162 L 4.899161,15.484483 6.0778322,13.016467 C 7.5390579,9.9568106 9.9175143,7.5306831 12.874244,6.0838351 L 15.026143,5.0308235 H 133.4465 251.86686 l 2.1519,1.0530116 c 2.95673,1.446848 5.33519,3.8729755 6.79641,6.9326319 l 1.17867,2.468016 V 133.41483 251.34517 l -0.73109,1.79672 c -1.5062,3.70164 -4.52999,6.61855 -8.5448,8.24281 l -1.83112,0.74081 -34.2194,0.0931 -34.2194,0.0931 v -49.82963 -49.82962 h 16.82386 c 9.25312,0 16.82386,-0.113 16.82386,-0.2511 0,-0.1381 1.10176,-8.77462 2.44837,-19.19226 1.3466,-10.41765 2.44914,-19.12493 2.45007,-19.34952 0.001,-0.32209 -4.07599,-0.40835 -19.30243,-0.40835 h -19.30413 l 0.14199,-15.1088 c 0.1218,-12.959753 0.22122,-15.387602 0.69895,-17.068867 1.68937,-5.945287 4.51156,-8.75836 10.54599,-10.511922 1.61372,-0.468935 3.93317,-0.572371 15.21879,-0.678681 l 13.31491,-0.125425 -0.0845,-17.536043 -0.0845,-17.536042 -2.1234,-0.224947 c -9.82402,-1.040727 -28.77914,-1.559023 -34.46441,-0.942371 -18.95209,2.05563 -32.46996,11.503409 -39.07429,27.309424 -3.73727,8.944327 -4.50457,15.548472 -4.52519,38.948254 l -0.0119,13.47542 h -16.66052 -16.66052 v 19.60061 19.60062 h 16.66052 16.66052 v 49.81822 49.81822 l -61.823594,-0.0408 c -34.002977,-0.0224 -62.589011,-0.15259 -63.52452,-0.28927 z"
   id="path3844"
   inkscape:connector-curvature="0" /></svg>
